<?xml version="1.0" encoding="utf-8"?>
<!-- Generator: Adobe Illustrator 16.0.0, SVG Export Plug-In . SVG Version: 6.00 Build 0)  -->
<!DOCTYPE svg PUBLIC "-//W3C//DTD SVG 1.1//EN" "http://www.w3.org/Graphics/SVG/1.1/DTD/svg11.dtd">
<svg version="1.1" id="Layer_2" xmlns="http://www.w3.org/2000/svg" xmlns:xlink="http://www.w3.org/1999/xlink" x="0px" y="0px"
	 width="745.221px" height="952.397px" viewBox="0 0 745.221 952.397" enable-background="new 0 0 745.221 952.397"
	 xml:space="preserve">
<polygon id="T" fill="#ffffff" points="235.505,251.816 235.505,308.683 173.255,329.044 173.255,610.022 64.28,645.751
	64.28,364.691 0.002,385.716 0.002,328.81 "/>
<path fill="#ffffff" d="M446.887,183.611l-82.199,26.71l-105.98,34.43v337.7l105.98-34.48v-113.31l78.899-25.62
	c27.61-9.17,49.811-28.04,49.811-48.52v-162.79C493.397,197.731,493.567,167.131,446.887,183.611z M373.127,234.911
	c16.021,23.92,21.03,31.87,40,59.77c10.24,15.08,14.62,25.45,14.62,40.56c0,30.28-24.43,54.87-54.62,54.87
	c-30.18,0-54.66-24.59-54.66-54.87c0-15.11,4.38-25.48,14.66-40.56"/>
<path fill="#ffffff" d="M645.511,219.873v-40.408c0-5.382-4.371-9.75-9.752-9.75c-5.383,0-9.751,4.368-9.751,9.75v40.408
	c0,0,0,30.149,49.222,39.237c52.692,9.751,69.737,21.14,69.737,51.992v81.75c0,31.71-35.138,43.139-59.48,51.212l-122.938,39.784
	c-28.549,9.282-45.749-1.209-45.749-15.21v-69.427l109.208-35.494v40.409c0,5.382,4.368,9.751,9.751,9.751
	c5.381,0,9.752-4.369,9.752-9.751v-40.409c0-29.838-22.468-43.724-74.106-47.544c-54.604-4.095-54.604-49.262-54.604-49.262v-75.238
	c0-14.47,15.13-35.688,45.008-45.4l157.733-51.249c10.334-3.355,25.426,1.987,25.426,15.989v76.526L645.511,219.873z"/>
<line display="none" fill="none" x1="252.333" y1="692.397" x2="278.348" y2="666.383"/>
<path fill="#ffffff" d="M69.375,797.814l675.592-218.547c0,0,0-57.176,0-123.58L15.764,691.127
	C15.764,691.127,32.18,745.354,69.375,797.814z"/>
<path fill="#ffffff" d="M738.104,650.783c-33.347,171.85-184.642,301.614-366.282,301.614c-98.211,0-187.567-37.952-254.226-100.002
	L738.104,650.783z"/>
<g>
	<path fill="#ffffff" d="M715.221,0.012c16.5,0,17.161,4.172,1.468,9.271l-299.66,97.365c-15.692,5.099-41.37,13.442-57.062,18.542
		L28.532,232.885C12.839,237.984,0,228.656,0,212.156V30C0,13.5,13.5,0,30,0L715.221,0.012z"/>
</g>
</svg>
